<svg width="103" height="35" viewBox="0 0 103 35" fill="none" xmlns="http://www.w3.org/2000/svg">
<g id="logos:google" clip-path="url(#clip0_2_560)">
<path id="Vector" d="M99.3361 21.2998L102.157 23.1804C101.242 24.5289 99.0517 26.8426 95.2658 26.8426C90.5644 26.8426 87.0633 23.2052 87.0633 18.5779C87.0633 13.654 90.6016 10.3135 94.87 10.3135C99.163 10.3135 101.266 13.7281 101.947 15.5715L102.318 16.5119L91.2574 21.0895C92.0986 22.7474 93.4102 23.5887 95.2658 23.5887C97.1217 23.5887 98.4083 22.6731 99.3361 21.2998ZM90.6635 18.3184L98.0496 15.25C97.6413 14.2232 96.429 13.4933 94.9812 13.4933C93.1379 13.4933 90.577 15.1264 90.6635 18.3184Z" fill="#FF302F"/>
<path id="Vector_2" d="M81.7309 1.8882H85.2939V26.088H81.7309V1.888V1.8882Z" fill="#20B15A"/>
<path id="Vector_3" d="M76.1141 10.9567H79.5535V25.6547C79.5535 31.754 75.9532 34.2656 71.6972 34.2656C67.6887 34.2656 65.2763 31.5685 64.3731 29.3787L67.5279 28.0672C68.0969 29.4157 69.4702 31.0119 71.6972 31.0119C74.4313 31.0119 76.1141 29.3168 76.1141 26.1497V24.962H75.9904C75.1737 25.9517 73.6149 26.8424 71.6354 26.8424C67.5031 26.8424 63.7171 23.2421 63.7171 18.6028C63.7171 13.9384 67.5031 10.3011 71.6354 10.3011C73.6025 10.3011 75.1737 11.1796 75.9904 12.1446H76.1141V10.9569V10.9567ZM76.3613 18.6028C76.3613 15.6829 74.419 13.5549 71.9446 13.5549C69.4454 13.5549 67.3422 15.6829 67.3422 18.6028C67.3422 21.4853 69.4454 23.5762 71.9446 23.5762C74.4192 23.5887 76.3615 21.4853 76.3615 18.6028H76.3613Z" fill="#3686F7"/>
<path id="Vector_4" d="M44.1571 18.5408C44.1571 23.3041 40.4456 26.8053 35.8927 26.8053C31.3399 26.8053 27.6282 23.2918 27.6282 18.5408C27.6282 13.7529 31.3399 10.264 35.8927 10.264C40.4456 10.264 44.1571 13.7529 44.1571 18.5408ZM40.5445 18.5408C40.5445 15.5717 38.3917 13.5301 35.8927 13.5301C33.3936 13.5301 31.2408 15.5717 31.2408 18.5408C31.2408 21.4853 33.3936 23.5516 35.8927 23.5516C38.3919 23.5516 40.5445 21.4853 40.5445 18.5408Z" fill="#FF302F"/>
<path id="Vector_5" d="M62.2079 18.5779C62.2079 23.3412 58.4962 26.8424 53.9434 26.8424C49.3905 26.8424 45.679 23.341 45.679 18.5779C45.679 13.79 49.3905 10.3135 53.9434 10.3135C58.4962 10.3135 62.2079 13.7777 62.2079 18.5779ZM58.5828 18.5779C58.5828 15.6088 56.4301 13.5672 53.9309 13.5672C51.4319 13.5672 49.279 15.6088 49.279 18.5779C49.279 21.5224 51.4319 23.5887 53.9309 23.5887C56.4425 23.5887 58.5828 21.5101 58.5828 18.5779Z" fill="#FFBA40"/>
<path id="Vector_6" d="M14.0437 23.2175C8.85978 23.2175 4.80193 19.0357 4.80193 13.8518C4.80193 8.66806 8.85978 4.48628 14.0437 4.48628C16.8398 4.48628 18.8811 5.58733 20.3905 6.99781L22.8774 4.5111C20.7742 2.49449 17.9657 0.960083 14.0437 0.960083C6.94227 0.960282 0.966507 6.75055 0.966507 13.8518C0.966507 20.9534 6.94227 26.7435 14.0437 26.7435C17.8791 26.7435 20.7742 25.4816 23.0382 23.1309C25.3641 20.8049 26.0816 17.5387 26.0816 14.8911C26.0816 14.0621 25.9827 13.2085 25.8713 12.5776H14.0437V16.017H22.469C22.2216 18.1698 21.5412 19.6421 20.539 20.644C19.3266 21.869 17.409 23.2175 14.0437 23.2175Z" fill="#3686F7"/>
</g>
<defs>
<clipPath id="clip0_2_560">
<rect width="101.685" height="33.3653" fill="white" transform="translate(0.818756 0.908875)"/>
</clipPath>
</defs>
</svg>
